<?xml version="1.0" standalone="no"?>
<!DOCTYPE svg PUBLIC "-//W3C//DTD SVG 20010904//EN"
 "http://www.w3.org/TR/2001/REC-SVG-20010904/DTD/svg10.dtd">
<svg version="1.0" xmlns="http://www.w3.org/2000/svg"
 width="256.000000pt" height="256.000000pt" viewBox="0 0 256.000000 256.000000"
 preserveAspectRatio="xMidYMid meet">
<metadata>
Created by potrace 1.14, written by Peter Selinger 2001-2017
</metadata>
<g transform="translate(0.000000,256.000000) scale(0.100000,-0.100000)"
fill="#000000" stroke="none">
<path d="M938 2333 c-10 -2 -54 -60 -98 -128 -45 -68 -87 -125 -93 -127 -7 -2
-88 -5 -182 -7 -274 -4 -284 -5 -305 -27 -17 -16 -30 -60 -45 -149 -5 -29
-101 -537 -130 -685 -13 -69 -27 -141 -30 -160 -3 -19 -16 -88 -29 -153 -27
-137 -26 -175 4 -199 11 -9 66 -59 122 -110 55 -51 107 -97 116 -103 10 -5 70
-10 135 -12 l118 -2 34 -38 c19 -21 63 -72 97 -115 83 -101 113 -116 162 -77
24 19 26 26 26 105 0 71 3 87 20 104 11 11 23 20 28 21 21 3 307 8 852 14 333
3 614 7 624 9 40 6 57 46 81 196 6 36 50 282 60 335 42 220 55 321 45 340 -6
11 -33 37 -60 58 -26 21 -56 46 -67 55 -10 10 -43 37 -73 62 -30 25 -57 47
-60 50 -5 5 -353 297 -394 330 -10 8 -23 20 -30 25 -6 6 -42 37 -80 68 l-70
57 -323 0 c-389 0 -363 -10 -363 135 0 58 -5 97 -12 108 -14 18 -53 28 -80 20z"/>
</g>
</svg>
