<?xml version="1.0" encoding="utf-8"?>
<!-- Generator: Adobe Illustrator 15.0.0, SVG Export Plug-In . SVG Version: 6.00 Build 0)  -->
<!DOCTYPE svg PUBLIC "-//W3C//DTD SVG 1.1//EN" "http://www.w3.org/Graphics/SVG/1.1/DTD/svg11.dtd">
<svg version="1.1" id="Layer_1" xmlns="http://www.w3.org/2000/svg" xmlns:xlink="http://www.w3.org/1999/xlink" x="0px" y="0px"
	 width="612px" height="40.708px" viewBox="0 375.6 612 40.708" enable-background="new 0 375.6 612 40.708" xml:space="preserve">
<g id="Rectangle_618_copy_2_1_" enable-background="new    ">
	<g id="Rectangle_618_copy_2">
		<g>
			<path fill="#1A1E2E" d="M135.989,411.491c61.14,4.896,85.46-2.285,123.196-7.755c31.875-4.619,102.781-22.647,155.885-28.136
				H0.437C28.114,386.083,89.919,407.803,135.989,411.491z M487.518,375.6c63.846,4.513,108.561,17.391,124.482,22.586V375.6
				H487.518z"/>
		</g>
	</g>
</g>
<g id="Rectangle_618_copy_5_1_" enable-background="new    ">
	<g id="Rectangle_618_copy_5">
		<g>
			<path fill="#232838" d="M0,375.6v23.31c25.538-7.58,83.646-21.716,161.87-21.716c52.846,0,145.28,24.259,183.017,29.73
				c37.737,5.47,62.058,12.65,123.197,7.755c51.484-4.122,122.636-30.766,143.826-39.079H0z"/>
		</g>
	</g>
</g>
</svg>
