<?xml version="1.0" encoding="utf-8"?>
<!-- Generator: Adobe Illustrator 15.0.0, SVG Export Plug-In . SVG Version: 6.00 Build 0)  -->
<!DOCTYPE svg PUBLIC "-//W3C//DTD SVG 1.1//EN" "http://www.w3.org/Graphics/SVG/1.1/DTD/svg11.dtd">
<svg version="1.1" id="Layer_1" xmlns="http://www.w3.org/2000/svg" xmlns:xlink="http://www.w3.org/1999/xlink" x="0px" y="0px"
	 width="612px" height="46.36px" viewBox="0 372.696 612 46.36" enable-background="new 0 372.696 612 46.36" xml:space="preserve">
<g id="Rectangle_618_1_" enable-background="new    ">
	<g id="Rectangle_618">
		<g>
			<path fill="#F3F3F3" d="M0,419.057h612v-0.865c-14.586-7.078-98.351-45.491-197.99-45.491
				c-52.74,0-110.445,17.553-165.716,28.343c-35.926,7.014-70.82,11.192-102.651,11.192c-65.815,0-122.226-12.94-145.643-19.195
				V419.057z"/>
		</g>
	</g>
</g>
<g id="Rectangle_618_copy_4_1_" enable-background="new    ">
	<g id="Rectangle_618_copy_4">
		<g>
			<path fill="#F8F8F8" d="M612,392.256c-21.368,5.875-79.826,19.977-148.535,19.977c-31.831,0-66.726-4.179-102.651-11.192
				c-55.267-10.79-112.976-28.344-165.716-28.344c-94.358,0-174.48,34.451-195.098,44.113v2.247h612V392.256z"/>
		</g>
	</g>
</g>
</svg>
