<?xml version="1.0" encoding="utf-8"?>
<!-- Generator: Adobe Illustrator 15.0.0, SVG Export Plug-In . SVG Version: 6.00 Build 0)  -->
<!DOCTYPE svg PUBLIC "-//W3C//DTD SVG 1.1//EN" "http://www.w3.org/Graphics/SVG/1.1/DTD/svg11.dtd">
<svg version="1.1" id="Layer_1" xmlns="http://www.w3.org/2000/svg" xmlns:xlink="http://www.w3.org/1999/xlink" x="0px" y="0px"
	 width="612px" height="46.36px" viewBox="0 372.696 612 46.36" enable-background="new 0 372.696 612 46.36" xml:space="preserve">
<g id="Rectangle_618_1_" enable-background="new    ">
	<g id="Rectangle_618">
		<g>
			<path fill="#F3F3F3" d="M612,372.696H0v0.865c14.586,7.078,98.351,45.492,197.99,45.492c52.74,0,110.445-17.553,165.716-28.343
				c35.926-7.014,70.82-11.192,102.651-11.192c65.815,0,122.226,12.941,145.643,19.196V372.696z"/>
		</g>
	</g>
</g>
<g id="Rectangle_618_copy_4_1_" enable-background="new    ">
	<g id="Rectangle_618_copy_4">
		<g>
			<path fill="#F8F8F8" d="M0,399.497c21.368-5.875,79.826-19.977,148.535-19.977c31.831,0,66.726,4.178,102.651,11.192
				c55.267,10.791,112.976,28.344,165.716,28.344c94.358,0,174.48-34.451,195.098-44.113v-2.247H0V399.497z"/>
		</g>
	</g>
</g>
</svg>
