<?xml version="1.0" encoding="utf-8"?>
<!-- Generator: Adobe Illustrator 15.0.0, SVG Export Plug-In . SVG Version: 6.00 Build 0)  -->
<!DOCTYPE svg PUBLIC "-//W3C//DTD SVG 1.1//EN" "http://www.w3.org/Graphics/SVG/1.1/DTD/svg11.dtd">
<svg version="1.1" id="Layer_1" xmlns="http://www.w3.org/2000/svg" xmlns:xlink="http://www.w3.org/1999/xlink" x="0px" y="0px"
	 width="612px" height="53.605px" viewBox="0 369.197 612 53.605" enable-background="new 0 369.197 612 53.605"
	 xml:space="preserve">
<g id="Rectangle_618_copy_1_" enable-background="new    ">
	<g id="Rectangle_618_copy">
		<g>
			<path fill="#232838" d="M422.883,369.197h-1.717c-52.173,0.185-109.203,21.924-163.833,35.313
				c-35.663,8.74-70.303,13.947-101.901,13.947c-81.373,0-148.259-25.01-155.432-27.786v32.131h612v-0.67
				C587.15,407.991,511.418,369.5,422.883,369.197z"/>
		</g>
	</g>
</g>
<g id="Rectangle_618_1_" enable-background="new    ">
	<g id="Rectangle_618">
		<g>
			<path fill="#1A1E2E" d="M0.915,422.803H612v-29.241c-21.213,7.32-79.244,24.895-147.451,24.895
				c-31.6,0-66.238-5.207-101.902-13.947c-54.631-13.389-111.66-35.127-163.833-35.313h-1.72
				C107.084,369.503,25.967,409.252,0.915,422.803z"/>
		</g>
	</g>
</g>
</svg>
